<svg width="151" height="178" viewBox="0 0 151 178" fill="none" xmlns="http://www.w3.org/2000/svg">
<path d="M145.518 49.8917L145.441 49.7049L145.299 49.5622L102.593 6.85597C94.8022 -0.934405 82.1715 -0.934413 74.3811 6.85596L6.84277 74.3943C-0.947601 82.1847 -0.947586 94.8154 6.84279 102.606L75.0568 170.82C82.8471 178.61 95.4778 178.61 103.268 170.82L147.412 126.676C150.737 123.351 150.657 118.105 148.045 114.414C142.47 106.535 139.194 96.9149 139.194 86.5268C139.194 77.2654 141.797 68.6152 146.313 61.2649C146.957 60.2162 147.172 58.9404 147.187 57.7135C147.203 56.4744 147.016 55.1897 146.771 54.0472C146.524 52.9 146.213 51.866 145.963 51.1205C145.839 50.7468 145.729 50.4434 145.649 50.2317C145.61 50.1258 145.577 50.0427 145.555 49.9852L145.528 49.9183L145.521 49.8998L145.519 49.8944L145.518 49.8927L145.518 49.8921C145.518 49.8919 145.518 49.8917 144.592 50.2693L145.518 49.8917Z" fill="#EFF3F9" stroke="#DFE9FA" stroke-width="2"/>
</svg>
