<svg width="29" height="23" viewBox="0 0 29 23" fill="none" xmlns="http://www.w3.org/2000/svg">
<path d="M9.51068 6.3745H9.62869L9.73424 6.32173L20.6891 0.845705C20.8273 0.776677 20.9807 0.744092 21.135 0.75104C21.2893 0.757988 21.4392 0.804239 21.5706 0.885404C21.7019 0.96657 21.8104 1.07996 21.8856 1.21481C21.9609 1.34966 22.0004 1.5015 22.0005 1.65592V18.5308C22.0004 18.6852 21.9609 18.837 21.8856 18.9719C21.8104 19.1067 21.7019 19.2201 21.5706 19.3013C21.4392 19.3824 21.2893 19.4287 21.135 19.4356L21.1575 19.9351L21.135 19.4356C20.9808 19.4426 20.8273 19.41 20.6892 19.341C20.6892 19.341 20.6891 19.341 20.6891 19.341L11.4738 14.734L10.7503 14.3723V15.1813V21.3436C10.7503 21.584 10.6548 21.8145 10.4848 21.9844C10.3148 22.1544 10.0843 22.2499 9.84397 22.2499H8.43769H8.43757C8.24728 22.2499 8.06181 22.1901 7.90744 22.0788L7.61508 22.4844L7.90744 22.0788C7.75307 21.9676 7.63764 21.8105 7.57751 21.63L7.5775 21.6299L5.08697 14.1542L4.97305 13.8122H4.6126H4.21885C3.23255 13.8122 2.28664 13.4204 1.58922 12.723L1.24429 13.0679L1.58922 12.723C0.891806 12.0255 0.5 11.0796 0.5 10.0933C0.5 9.10705 0.891806 8.16114 1.58922 7.46372C2.28664 6.7663 3.23255 6.3745 4.21885 6.3745H9.51068Z" fill="#2F2E43" stroke="black"/>
<path d="M24.0626 14.3967C24.6167 14.3967 25.1653 14.2876 25.6771 14.0756C26.189 13.8635 26.6541 13.5528 27.0458 13.161C27.4376 12.7693 27.7483 12.3042 27.9604 11.7923C28.1724 11.2805 28.2815 10.7319 28.2815 10.1779C28.2815 9.62383 28.1724 9.07523 27.9604 8.56338C27.7483 8.05152 27.4376 7.58644 27.0458 7.19469C26.6541 6.80293 26.189 6.49217 25.6771 6.28016C25.1653 6.06814 24.6167 5.95901 24.0626 5.95901L24.0626 10.1779L24.0626 14.3967Z" fill="#2F2E43"/>
</svg>
